<?xml version="1.0" encoding="UTF-8" standalone="no"?>
<!-- Creator: CorelDRAW X7 -->

<svg
   xmlns:dc="http://purl.org/dc/elements/1.1/"
   xmlns:cc="http://creativecommons.org/ns#"
   xmlns:rdf="http://www.w3.org/1999/02/22-rdf-syntax-ns#"
   xmlns:svg="http://www.w3.org/2000/svg"
   xmlns="http://www.w3.org/2000/svg"
   xmlns:sodipodi="http://sodipodi.sourceforge.net/DTD/sodipodi-0.dtd"
   xmlns:inkscape="http://www.inkscape.org/namespaces/inkscape"
   xml:space="preserve"
   width="4.23221in"
   height="2.01241in"
   version="1.1"
   style="shape-rendering:geometricPrecision; text-rendering:geometricPrecision; image-rendering:optimizeQuality; fill-rule:evenodd; clip-rule:evenodd"
   viewBox="0 0 622 296"
   id="svg1006"
   sodipodi:docname="Logogray.svg"
   inkscape:version="0.92.2 5c3e80d, 2017-08-06"><metadata
     id="metadata1010"><rdf:RDF><cc:Work
         rdf:about=""><dc:format>image/svg+xml</dc:format><dc:type
           rdf:resource="http://purl.org/dc/dcmitype/StillImage" /><dc:title /></cc:Work></rdf:RDF></metadata><sodipodi:namedview
     pagecolor="#ffffff"
     bordercolor="#666666"
     borderopacity="1"
     objecttolerance="10"
     gridtolerance="10"
     guidetolerance="10"
     inkscape:pageopacity="0"
     inkscape:pageshadow="2"
     inkscape:window-width="1440"
     inkscape:window-height="795"
     id="namedview1008"
     showgrid="false"
     inkscape:zoom="0.79745567"
     inkscape:cx="-22.571786"
     inkscape:cy="96.595676"
     inkscape:window-x="0"
     inkscape:window-y="1"
     inkscape:window-maximized="1"
     inkscape:current-layer="g1000" /><defs
     id="defs989"><style
       type="text/css"
       id="style987"><![CDATA[
    .fil0 {fill:#A8CF45}
    .fil2 {fill:#373435;fill-rule:nonzero}
    .fil1 {fill:#606062;fill-opacity:0.921569}
   ]]></style></defs><g
     id="Layer_x0020_1"><metadata
       id="CorelCorpID_0Corel-Layer" /><g
       id="_1753018368"><g
         id="g1000"><polygon
           class="fil0"
           points="362,2 446,2 446,232 362,232 "
           id="polygon992"
           style="fill:#999999" /><polygon
           class="fil1"
           points="362,2 446,2 289,232 205,232 "
           id="polygon994"
           style="fill:#ffffff" /><path
           class="fil2"
           d="M178 191c-17,10 -35,15 -54,15 -53,0 -91,-38 -91,-89 0,-51 38,-88 91,-88 26,0 48,8 67,27l20 -21c-21,-23 -52,-35 -88,-35 -71,0 -123,50 -123,117 0,68 52,118 122,118 32,0 64,-10 87,-29l0 -90 -31 0 0 75z"
           id="path996"
           style="fill:#ffffff" /><polygon
           class="fil2"
           points="528,232 556,232 556,31 622,31 622,3 462,3 462,31 528,31 "
           id="polygon998"
           style="fill:#ffffff" /></g><path
         class="fil2"
         d="M61 296c6,0 12,-2 16,-7l-2 -2c-4,4 -9,6 -14,6 -12,0 -21,-9 -21,-21 0,-12 9,-21 21,-21 5,0 10,2 14,6l2 -2c-4,-5 -10,-7 -16,-7 -14,0 -25,10 -25,24 0,14 11,24 25,24zm59 0c14,0 24,-10 24,-24 0,-14 -10,-24 -24,-24 -14,0 -25,10 -25,24 0,14 11,24 25,24zm0 -3c-12,0 -21,-9 -21,-21 0,-12 9,-21 21,-21 12,0 21,9 21,21 0,12 -9,21 -21,21zm83 -44l0 40 -32 -40 -3 0 0 47 4 0 0 -41 32 41 3 0 0 -47 -4 0zm44 47c12,0 17,-6 17,-13 0,-17 -29,-8 -29,-22 0,-6 4,-10 13,-10 4,0 9,2 13,4l1 -3c-3,-2 -9,-4 -14,-4 -11,0 -16,6 -16,13 0,17 29,9 29,23 0,5 -4,9 -14,9 -6,0 -12,-3 -15,-6l-2 3c4,3 10,6 17,6zm59 0c12,0 19,-7 19,-20l0 -27 -3 0 0 26c0,12 -6,18 -16,18 -9,0 -15,-6 -15,-18l0 -26 -3 0 0 27c0,13 7,20 18,20zm47 0l31 0 0 -4 -27 0 0 -43 -4 0 0 47zm56 0l4 0 0 -44 17 0 0 -3 -38 0 0 3 17 0 0 44zm41 0l4 0 0 -47 -4 0 0 47zm67 -47l0 40 -32 -40 -3 0 0 47 4 0 0 -41 32 41 2 0 0 -47 -3 0zm65 39c-3,4 -8,5 -13,5 -12,0 -21,-9 -21,-21 0,-12 9,-21 21,-21 6,0 11,2 15,6l2 -2c-4,-5 -10,-7 -17,-7 -14,0 -25,10 -25,24 0,14 11,24 25,24 6,0 13,-2 17,-6l0 -18 -4 0 0 16z"
         id="path1002"
         style="fill:#ffffff" /></g></g></svg>